<svg width="434" height="381" viewBox="0 0 434 381" fill="none" xmlns="http://www.w3.org/2000/svg">
<path d="M413.7 174.7C413.2 175.2 412.4 175.9 411.4 176.7C405 182.1 390.1 194.8 388.2 212.4L386.1 211.9C385.9 192.6 399.5 172.8 408.9 168.8C409.1 168.7 409.2 168.5 409.1 168.2C409 168 408.7 167.9 408.5 168C399 172 385 191.4 385.1 211.7L383.7 211.3C383.2 209.5 380.1 197.3 388.6 181.2C390.1 178.4 391.7 175.8 393.5 173.5L393.6 173.4C399.5 165.7 406.5 161.3 411.3 162.9C413.8 163.7 415.4 165.3 415.9 167.5C416.8 169.9 415.9 172.6 413.7 174.7Z" fill="white"/>
<path d="M402.8 156.6C398.9 162.1 395 167.8 393.1 172.9C391.3 175.2 389.6 177.9 388.1 180.7C385.4 185.9 383.8 190.7 383 194.9C382.2 165.5 398.3 142.5 403.2 138.4C403.4 138.2 403.4 138 403.3 137.8C403.1 137.6 402.9 137.6 402.7 137.7C397.5 142.1 379.8 167.4 382.4 199.1C381.8 205 382.6 209.2 383 210.8L380.6 210.1C379.9 207.9 374.9 189.3 379 164.6C381.2 151.4 388.9 138.6 397.2 134.1C401.1 132 404.8 131.7 408.4 133.3C410.4 134.2 411.5 135.3 412 136.9C413.2 141.7 408.1 148.9 402.8 156.6Z" fill="white"/>
<path d="M417.1 167.3C416.5 164.8 414.6 162.9 411.9 162C407.3 160.5 400.8 164 395.1 170.6C394.4 171.4 393.8 172.1 393.2 173C391.4 175.3 389.7 178 388.2 180.8C385.5 186 383.9 190.8 383.1 195C382.8 196.5 382.6 198 382.5 199.3C381.9 205.2 382.7 209.4 383.1 211C383.2 211.5 383.3 211.8 383.3 211.8C383.3 211.9 383.4 212 383.5 212H383.6L385.7 212.5L388.6 213.3C388.7 213.3 388.7 213.3 388.8 213.3C388.9 213.3 388.9 213.3 389 213.2C389.1 213.1 389.2 213 389.2 212.9C390.8 195.4 405.7 182.7 412.1 177.2C413.1 176.3 413.9 175.6 414.5 175.1C416.7 173 417.7 170 417.1 167.3ZM413.7 174.7C413.2 175.2 412.4 175.9 411.4 176.7C405 182.1 390.1 194.8 388.2 212.4L386.1 211.9L385.2 211.7L383.8 211.3C383.3 209.5 380.2 197.3 388.7 181.2C390.2 178.4 391.8 175.8 393.6 173.5L393.7 173.4C399.6 165.7 406.6 161.3 411.4 162.9C413.9 163.7 415.5 165.3 416 167.5C416.8 169.9 415.9 172.6 413.7 174.7Z" fill="#FFC001"/>
<path d="M409 168.801C399.6 172.801 386 192.601 386.2 211.901V212.201C386.2 212.401 386 212.601 385.8 212.601H385.7C385.6 212.601 385.6 212.601 385.5 212.601C385.4 212.501 385.2 212.401 385.2 212.201C385.2 212.001 385.2 211.801 385.2 211.601C385.1 191.301 399.1 171.901 408.6 167.901C408.8 167.801 409.1 167.901 409.2 168.101C409.4 168.401 409.3 168.701 409 168.801Z" fill="#FFC001"/>
<path d="M403.5 157.1C400.3 161.6 397.1 166.3 395 170.6C394.6 171.5 394.2 172.4 393.8 173.3C393.8 173.3 393.4 173.6 393.2 173.6C393 173.5 392.9 173.3 392.9 173V172.9C394.7 167.8 398.7 162.1 402.6 156.6C408 148.9 413 141.6 411.7 137.1C411.3 135.5 410.1 134.4 408.1 133.5C404.5 131.9 400.7 132.2 396.9 134.3C388.6 138.8 380.9 151.7 378.7 164.8C374.5 189.5 379.6 208.1 380.3 210.3L382.7 211L383.5 211.2C383.7 211.3 383.9 211.5 383.8 211.7C383.7 211.9 383.6 212 383.5 212C383.4 212 383.4 212 383.3 212H383.2L379.9 211C379.8 211 379.6 210.8 379.6 210.7C379.5 210.5 373.5 190.9 378 164.6C380.3 151.2 388.1 138.1 396.6 133.4C400.7 131.2 404.7 130.9 408.6 132.6C410.8 133.5 412.1 134.9 412.6 136.7C414.2 141.8 409 149.2 403.5 157.1Z" fill="#FFC001"/>
<path d="M403.2 138.5C398.3 142.6 382.2 165.6 383 195C383 196.4 383.1 197.8 383.2 199.2C383.2 199.4 383.1 199.6 382.8 199.7C382.6 199.7 382.4 199.6 382.3 199.3C379.7 167.6 397.4 142.2 402.6 137.9C402.8 137.7 403.1 137.8 403.2 138C403.4 138.1 403.4 138.3 403.2 138.5Z" fill="#FFC001"/>
<path d="M243.6 343.601L236.1 339.301L241.5 336.201C244.3 334.601 244.8 332.201 244.8 331.001C244.8 329.801 244.4 327.401 241.5 325.801L228 318.001C226.5 317.101 224.7 316.701 222.7 316.701C220.7 316.701 218.9 317.101 217.4 318.001L208.3 323.301L161 295.901C159.5 295.001 157.7 294.601 155.7 294.601C153.7 294.601 151.9 295.001 150.4 295.901L131.1 307.001C129.4 308.001 128.3 308.901 127.6 310.001C126.8 311.301 126.5 313.001 126.9 315.001L136.9 365.001C137.5 367.501 139.4 369.701 142.5 371.501L156 379.301C157.5 380.201 159.3 380.601 161.3 380.601C163.3 380.601 165.1 380.201 166.6 379.301L205 357.101L216.2 363.601C217.7 364.501 219.5 364.901 221.5 364.901C223.5 364.901 225.3 364.501 226.8 363.601L243.5 353.901C246.3 352.301 246.8 349.901 246.8 348.701C246.8 347.501 246.4 345.201 243.6 343.601ZM169.2 345.701L167 334.401L177.9 340.701L169.2 345.701Z" fill="#E0E0E0"/>
<path d="M28.9 339.7C36.6 342.5 44 346.3 50.8 350.9C58.5 356.1 65.5 362.3 73.6 366.6C84.2 372.2 96.4 374.2 108.4 373.6C115.2 373.3 122.5 371.8 126.9 366.5C128 365.1 128.9 363.5 128.9 361.7C128.9 359.1 127.2 356.9 125.3 355.1C115.5 345.5 101.8 341.6 88.5 338.5C75.3 335.4 67.3 331.6 54.3 324.6C48.7 321.6 43.3 318.4 37.7 315.6C37.7 315.6 37.6 315.6 37.6 315.5C34.8 314.1 32.1 312.5 29.1 311.4C25.3 310 22.1 309 17.9 309.3C13.7 309.6 8.90002 309.6 6.00002 313C3.40002 316 3.10002 320 4.70002 323.5C8.80002 333 20 336.4 28.9 339.7Z" fill="#E0E0E0"/>
<path d="M318.8 265.8C315.4 263.6 311.7 261.4 307.7 259.1C303.7 256.8 299.7 254.6 295.8 252.5C290.7 249.9 285.2 247.7 279.2 246.1C273.2 244.5 266.9 243.6 260.4 243.5H259.5C253.3 243.5 246.9 244.3 240.5 245.9C233.7 247.6 226.9 250.3 220.2 254.2C213.3 258.2 208.5 262.2 205.4 266.4C202.2 270.8 200.6 275.3 200.8 279.7C201 284.1 202.7 288.3 205.9 292.2C208.8 295.8 212.7 299.1 217.4 302.1C220.9 304.3 224.7 306.6 228.8 309C232.9 311.3 236.8 313.5 240.5 315.4C245.6 318 251.1 320.2 257.1 321.8C263.1 323.5 269.4 324.3 275.9 324.4H276.8C283 324.4 289.4 323.6 295.8 322C302.6 320.3 309.4 317.6 316.1 313.7C323 309.7 327.9 305.7 330.9 301.5C334.1 297.1 335.7 292.6 335.5 288.2C335.3 283.8 333.6 279.6 330.4 275.7C327.3 272.1 323.5 268.8 318.8 265.8ZM295.8 292.2C295.5 292.7 294.5 293.8 291.8 295.4C289.6 296.7 287.4 297.6 285.3 298C283.6 298.4 282 298.6 280.4 298.6C280 298.6 279.5 298.6 279.1 298.6C277.1 298.5 275 298.1 273.1 297.4C271 296.7 269 295.8 266.9 294.7C259.4 290.8 252.3 286.7 245.7 282.5C243.9 281.4 242.5 280.3 241.4 279.2C240.6 278.4 240.1 277.6 240 277C240 276.9 239.9 276.5 240.4 275.7C240.7 275.2 241.7 274.1 244.4 272.5C246.6 271.2 248.8 270.3 250.9 269.9C252.5 269.5 254.1 269.4 255.6 269.4C256.1 269.4 256.6 269.4 257 269.5C259 269.7 261 270.1 263 270.7C265.1 271.4 267.3 272.3 269.3 273.3C276.6 277.1 283.7 281.2 290.5 285.6C292.3 286.7 293.8 287.9 294.9 289C295.7 289.7 296.1 290.5 296.2 291.1C296.3 290.9 296.4 291.3 295.8 292.2Z" fill="#E0E0E0"/>
<path d="M430.3 235.8L422.8 231.5L428.2 228.4C431 226.8 431.5 224.4 431.5 223.2C431.5 222 431.1 219.6 428.2 218L414.7 210.2C413.2 209.3 411.4 208.9 409.4 208.9C407.4 208.9 405.6 209.3 404.1 210.2L395 215.5L347.8 188.2C346.3 187.3 344.5 186.9 342.5 186.9C340.5 186.9 338.7 187.3 337.2 188.2L317.9 199.3C316.2 200.3 315.1 201.2 314.4 202.3C313.6 203.6 313.3 205.3 313.7 207.3L323.7 257.3C324.3 259.8 326.2 262 329.3 263.8L342.8 271.6C344.3 272.5 346.1 272.9 348.1 272.9C350.1 272.9 351.9 272.5 353.4 271.6L391.8 249.4L403 255.9C404.5 256.8 406.3 257.2 408.3 257.2C410.3 257.2 412.1 256.8 413.6 255.9L430.3 246.2C433.1 244.6 433.6 242.2 433.6 241C433.5 239.7 433.1 237.4 430.3 235.8ZM355.9 237.9L353.7 226.6L364.6 232.9L355.9 237.9Z" fill="#E0E0E0"/>
<path d="M240.2 333.9L223.5 343.6C222.6 344.1 221.4 344.4 220 344.4C218.6 344.4 217.5 344.1 216.6 343.6L203.6 336.1L163.3 359.3C162.4 359.8 161.2 360.1 159.8 360.1C158.4 360.1 157.3 359.8 156.3 359.3L142.8 351.5C140.6 350.2 139.3 348.8 139 347.4L129 297.5C128.9 297.2 128.9 296.9 128.9 296.6C128.9 297.6 128.9 310 128.9 310.6C128.9 310.8 128.9 311.1 129 311.4L139 361.3C139.3 362.8 140.6 364.2 142.8 365.4L156.3 373.2C157.2 373.7 158.4 374 159.8 374C161.2 374 162.3 373.7 163.3 373.2L203.6 350L216.6 357.5C217.5 358 218.7 358.3 220 358.3C221.4 358.3 222.5 358 223.5 357.5L240.2 347.8C241.1 347.3 241.6 346.6 241.6 345.8V331.9C241.6 332.7 241.2 333.3 240.2 333.9Z" fill="#FFC001"/>
<path d="M239.6 327.9V314C239.6 314.8 239.1 315.5 238.2 316L227.2 322.3L239.1 329.1C239.4 328.8 239.6 328.4 239.6 327.9Z" fill="#FFC001"/>
<path d="M163.4 326L171.7 330.8L183.8 323.9L160.2 310.3L163.4 326Z" fill="#FFC001"/>
<path opacity="0.35" d="M163.4 326L171.7 330.8L183.8 323.9L160.2 310.3L163.4 326Z" fill="black"/>
<path opacity="0.2" d="M239.6 327.9V314C239.6 314.8 239.1 315.5 238.2 316L227.2 322.3L239.1 329.1C239.4 328.8 239.6 328.4 239.6 327.9Z" fill="black"/>
<path opacity="0.2" d="M240.2 333.9L223.5 343.6C222.6 344.1 221.4 344.4 220 344.4V358.3C221.4 358.3 222.5 358 223.5 357.5L240.2 347.8C241.1 347.3 241.6 346.6 241.6 345.8V331.9C241.6 332.7 241.2 333.3 240.2 333.9Z" fill="black"/>
<path opacity="0.25" d="M139 347.3L129 297.4C128.9 297.1 128.9 296.8 128.9 296.5C128.9 297.5 128.9 309.9 128.9 310.5C128.9 310.7 128.9 311 129 311.3L139 361.2C139.1 361.5 139.2 361.8 139.3 362V348.1C139.2 347.9 139.1 347.6 139 347.3Z" fill="black"/>
<path opacity="0.35" d="M159.9 360.1C158.5 360.1 157.4 359.8 156.4 359.3L142.9 351.5C141.1 350.5 139.9 349.4 139.4 348.2V362.1C139.9 363.3 141.1 364.4 142.9 365.4L156.4 373.2C157.3 373.7 158.5 374 159.9 374C160 374 160.2 374 160.3 374V360.1C160.1 360.1 160 360.1 159.9 360.1Z" fill="black"/>
<path opacity="0.2" d="M163.3 359.3C162.5 359.8 161.4 360.1 160.2 360.1V374C161.4 374 162.4 373.7 163.3 373.2L203.6 350V336L163.3 359.3Z" fill="black"/>
<path opacity="0.35" d="M216.6 343.6L203.6 336.1V350L216.6 357.5C217.5 358 218.7 358.3 220 358.3V344.4C218.7 344.4 217.5 344.1 216.6 343.6Z" fill="black"/>
<path d="M223.5 343.6C222.6 344.1 221.4 344.4 220 344.4C218.6 344.4 217.5 344.1 216.6 343.6L203.6 336.1L163.3 359.3C162.4 359.8 161.2 360.1 159.8 360.1C158.4 360.1 157.3 359.8 156.4 359.3L142.9 351.5C140.7 350.2 139.4 348.8 139.1 347.4L129.1 297.5C128.9 296.5 129 295.8 129.4 295.2C129.7 294.7 130.5 294.1 131.6 293.4L150.9 282.3C151.8 281.8 153 281.5 154.4 281.5C155.8 281.5 156.9 281.8 157.8 282.3L206.9 310.6L217.9 304.3C218.8 303.8 220 303.5 221.4 303.5C222.8 303.5 223.9 303.8 224.9 304.3L238.4 312.1C239.3 312.6 239.8 313.3 239.8 314.1C239.8 314.9 239.3 315.6 238.4 316.1L227.4 322.4L240.4 329.9C241.3 330.4 241.8 331.1 241.8 331.9C241.8 332.7 241.3 333.4 240.4 333.9L223.5 343.6ZM183.8 323.9L160.3 310.3L165.2 334.6L183.8 323.9Z" fill="#FFC001"/>
<path d="M330.2 272.2C330.1 275.5 328.8 279 326.3 282.5C323.6 286.2 319 290 312.6 293.6C306.2 297.3 299.8 299.9 293.3 301.5C286.8 303.1 280.5 303.8 274.3 303.8C268.1 303.7 262.2 302.9 256.5 301.3C250.8 299.7 245.5 297.7 240.6 295.2C236.9 293.3 233.1 291.2 229.1 288.9C225.1 286.6 221.4 284.3 217.9 282.1C213.6 279.3 210 276.2 207.3 273C204.6 269.7 203.1 266.3 203 262.7C203.1 264.9 202.9 274.2 203 276.6C203.1 280.2 204.5 283.6 207.3 286.9C210 290.2 213.6 293.2 217.9 296C221.4 298.2 225.1 300.5 229.1 302.8C233.1 305.1 236.9 307.2 240.6 309.2C245.5 311.7 250.8 313.7 256.5 315.3C262.2 316.9 268.2 317.7 274.3 317.8C280.5 317.9 286.8 317.1 293.3 315.5C299.8 313.9 306.2 311.3 312.6 307.6C319 303.9 323.6 300.2 326.3 296.5C329 292.8 330.3 289.1 330.2 285.5C330.1 283.3 330.3 275.3 330.2 272.2Z" fill="#FFC001"/>
<path opacity="0.35" d="M277.8 303.7C276.7 303.7 275.5 303.8 274.4 303.8C268.2 303.7 262.3 302.9 256.6 301.3C250.9 299.7 245.6 297.7 240.7 295.2C237 293.3 233.2 291.2 229.2 288.9C225.2 286.6 221.5 284.3 218 282.1C213.7 279.3 210.1 276.2 207.4 273C204.7 269.7 203.2 266.3 203.1 262.7C203.2 264.9 203 274.2 203.1 276.6C203.2 280.2 204.6 283.6 207.4 286.9C210.1 290.2 213.7 293.2 218 296C221.5 298.2 225.2 300.5 229.2 302.8C233.2 305.1 237 307.2 240.7 309.2C245.6 311.7 250.9 313.7 256.6 315.3C262.3 316.9 268.3 317.7 274.4 317.8C275.5 317.8 276.7 317.8 277.8 317.7V303.7Z" fill="black"/>
<path opacity="0.2" d="M330.2 272.2C330.1 275.5 328.8 279 326.3 282.5C323.6 286.2 319 290 312.6 293.6C306.2 297.3 299.8 299.9 293.3 301.5C288 302.8 282.8 303.5 277.7 303.7V317.6C282.8 317.4 288 316.7 293.3 315.4C299.8 313.8 306.2 311.2 312.6 307.5C319 303.8 323.6 300.1 326.3 296.4C329 292.7 330.3 289 330.2 285.4C330.1 283.3 330.3 275.3 330.2 272.2Z" fill="black"/>
<path d="M237.2 264.8C237.9 265.5 238.7 266.3 239.7 267C240.1 266.7 240.6 266.4 241 266.2C243.6 264.7 246.1 263.7 248.5 263.2C251 262.7 253.4 262.5 255.7 262.7C258 262.9 260.3 263.3 262.6 264.1C264.9 264.9 267.1 265.8 269.4 266.9C276.8 270.8 284 274.9 290.9 279.3C291.8 279.9 292.6 280.4 293.4 281C295.2 279.8 296.5 278.7 297.3 277.5C298.2 276.1 298.6 274.7 298.3 273.3C298 271.9 297.3 270.6 295.9 269.3C294.6 268 292.9 266.7 290.8 265.4C283.9 261 276.7 256.9 269.3 253C267 251.9 264.7 250.9 262.5 250.2C260.2 249.4 257.9 249 255.6 248.8C253.3 248.6 250.8 248.8 248.4 249.3C245.9 249.8 243.4 250.9 240.9 252.3C238.4 253.8 236.6 255.2 235.7 256.7C234.8 258.1 234.4 259.5 234.7 260.9C235.2 262.1 236 263.5 237.2 264.8Z" fill="#FFC001"/>
<path opacity="0.35" d="M237.2 264.8C237.9 265.5 238.7 266.3 239.7 267C240.1 266.7 240.6 266.4 241 266.2C243.6 264.7 246.1 263.7 248.5 263.2C251 262.7 253.4 262.5 255.7 262.7C258 262.9 260.3 263.3 262.6 264.1C264.9 264.9 267.1 265.8 269.4 266.9C276.8 270.8 284 274.9 290.9 279.3C291.8 279.9 292.6 280.4 293.4 281C295.2 279.8 296.5 278.7 297.3 277.5C298.2 276.1 298.6 274.7 298.3 273.3C298 271.9 297.3 270.6 295.9 269.3C294.6 268 292.9 266.7 290.8 265.4C283.9 261 276.7 256.9 269.3 253C267 251.9 264.7 250.9 262.5 250.2C260.2 249.4 257.9 249 255.6 248.8C253.3 248.6 250.8 248.8 248.4 249.3C245.9 249.8 243.4 250.9 240.9 252.3C238.4 253.8 236.6 255.2 235.7 256.7C234.8 258.1 234.4 259.5 234.7 260.9C235.2 262.1 236 263.5 237.2 264.8Z" fill="black"/>
<path d="M220.6 240.4C227 236.7 233.4 234.1 239.9 232.5C246.4 230.9 252.7 230.2 258.9 230.3C265.1 230.4 271 231.2 276.7 232.8C282.4 234.4 287.7 236.4 292.5 238.9C296.3 240.9 300.3 243.1 304.3 245.4C308.3 247.7 312 249.9 315.3 252C319.6 254.8 323.2 257.9 325.9 261.2C328.6 264.5 330.1 267.9 330.2 271.5C330.3 275.1 329 278.7 326.3 282.5C323.6 286.2 319 290 312.6 293.6C306.2 297.3 299.8 299.9 293.3 301.5C286.8 303.1 280.5 303.8 274.3 303.7C268.1 303.6 262.2 302.8 256.5 301.2C250.8 299.6 245.5 297.6 240.6 295.1C236.9 293.2 233.1 291.1 229.1 288.8C225.1 286.5 221.3 284.2 217.8 282C213.5 279.2 209.9 276.1 207.2 272.8C204.5 269.5 203 266.1 202.9 262.5C202.8 258.9 204.1 255.3 206.8 251.5C209.7 247.8 214.2 244.1 220.6 240.4ZM291 265.3C284.1 260.9 276.9 256.8 269.5 252.9C267.2 251.8 264.9 250.8 262.7 250.1C260.4 249.3 258.1 248.9 255.8 248.7C253.5 248.5 251 248.7 248.6 249.3C246.1 249.8 243.6 250.8 241.1 252.3C238.5 253.8 236.8 255.2 235.9 256.7C235 258.1 234.6 259.5 234.9 260.9C235.2 262.3 236 263.6 237.3 264.9C238.6 266.2 240.2 267.5 242.3 268.8C248.9 273.1 256.1 277.3 263.8 281.2C266 282.4 268.3 283.4 270.5 284.1C272.8 284.9 275.1 285.3 277.5 285.5C279.9 285.6 282.3 285.5 284.8 284.9C287.3 284.4 289.8 283.4 292.3 281.9C294.9 280.4 296.6 279 297.5 277.5C298.4 276.1 298.8 274.7 298.5 273.3C298.2 271.9 297.5 270.6 296.1 269.3C294.8 267.9 293.1 266.6 291 265.3Z" fill="#FFC001"/>
<path d="M426.9 226.1L410.2 235.8C409.3 236.3 408.1 236.6 406.7 236.6C405.3 236.6 404.2 236.3 403.3 235.8L390.3 228.3L350 251.5C349.1 252 347.9 252.3 346.5 252.3C345.1 252.3 344 252 343 251.5L329.5 243.7C327.3 242.4 326 241 325.7 239.6L315.7 189.7C315.6 189.4 315.6 189.1 315.6 188.8C315.6 189.8 315.6 202.2 315.6 202.8C315.6 203 315.6 203.3 315.7 203.6L325.7 253.5C326 255 327.3 256.4 329.5 257.6L343 265.4C343.9 265.9 345.1 266.2 346.5 266.2C347.9 266.2 349 265.9 350 265.4L390.3 242.2L403.3 249.7C404.2 250.2 405.4 250.5 406.7 250.5C408.1 250.5 409.2 250.2 410.2 249.7L426.9 240C427.8 239.5 428.3 238.8 428.3 238V224.1C428.3 224.9 427.9 225.6 426.9 226.1Z" fill="#FFC001"/>
<path d="M426.3 220.2V206.3C426.3 207.1 425.8 207.8 424.9 208.3L413.9 214.6L425.8 221.4C426.1 221.1 426.3 220.6 426.3 220.2Z" fill="#FFC001"/>
<path d="M350.1 218.2L358.4 223L370.4 216.1L346.9 202.5L350 218.2H350.1Z" fill="#FFC001"/>
<path opacity="0.35" d="M350.1 218.2L358.4 223L370.4 216.1L346.9 202.5L350 218.2H350.1Z" fill="black"/>
<path opacity="0.2" d="M426.3 220.2V206.3C426.3 207.1 425.8 207.8 424.9 208.3L413.9 214.6L425.8 221.4C426.1 221.1 426.3 220.6 426.3 220.2Z" fill="black"/>
<path opacity="0.2" d="M426.9 226.101L410.2 235.801C409.3 236.301 408.1 236.601 406.7 236.601V250.501C408.1 250.501 409.2 250.201 410.2 249.701L426.9 240.001C427.8 239.501 428.3 238.801 428.3 238.001V224.101C428.3 224.901 427.9 225.601 426.9 226.101Z" fill="black"/>
<path opacity="0.25" d="M325.7 239.5L315.7 189.6C315.6 189.3 315.6 189 315.6 188.7C315.6 189.7 315.6 202.1 315.6 202.7C315.6 202.9 315.6 203.2 315.7 203.5L325.7 253.4C325.8 253.7 325.9 254 326 254.2V240.3C325.9 240.1 325.8 239.8 325.7 239.5Z" fill="black"/>
<path opacity="0.35" d="M346.5 252.3C345.1 252.3 344 252 343 251.5L329.5 243.7C327.7 242.7 326.5 241.6 326 240.4V254.3C326.5 255.5 327.7 256.6 329.5 257.6L343 265.4C343.9 265.9 345.1 266.2 346.5 266.2C346.6 266.2 346.8 266.2 346.9 266.2V252.3C346.8 252.3 346.7 252.3 346.5 252.3Z" fill="black"/>
<path opacity="0.2" d="M350 251.5C349.2 252 348.1 252.3 346.9 252.3V266.2C348.1 266.2 349.1 265.9 350 265.4L390.3 242.2V228.3L350 251.5Z" fill="black"/>
<path opacity="0.35" d="M403.3 235.8L390.3 228.3V242.2L403.3 249.7C404.2 250.2 405.4 250.5 406.7 250.5V236.6C405.4 236.6 404.2 236.3 403.3 235.8Z" fill="black"/>
<path d="M410.2 235.8C409.3 236.3 408.1 236.6 406.7 236.6C405.3 236.6 404.2 236.3 403.3 235.8L390.3 228.3L350 251.5C349.1 252 347.9 252.3 346.5 252.3C345.1 252.3 344 252 343.1 251.5L329.6 243.7C327.4 242.4 326.1 241 325.8 239.6L315.8 189.7C315.6 188.7 315.7 188 316.1 187.4C316.4 186.9 317.2 186.3 318.3 185.6L337.6 174.5C338.5 174 339.7 173.7 341.1 173.7C342.5 173.7 343.6 174 344.5 174.5L393.6 202.8L404.6 196.5C405.5 196 406.7 195.7 408.1 195.7C409.5 195.7 410.6 196 411.6 196.5L425.1 204.3C426 204.8 426.5 205.5 426.5 206.3C426.5 207.1 426 207.8 425.1 208.3L414.1 214.6L427.1 222.1C428 222.6 428.5 223.3 428.5 224.1C428.5 224.9 428 225.6 427.1 226.1L410.2 235.8ZM370.4 216.1L346.9 202.5L351.8 226.8L370.4 216.1Z" fill="#FFC001"/>
<path d="M322.1 342.3C322.3 342.2 322.6 342.1 322.9 342.1C323.2 342.1 323.5 342.2 323.7 342.3L327 344.2C327.2 344.3 327.3 344.5 327.3 344.7C327.3 344.9 327.2 345.1 327 345.2L312.2 353.7C312 353.8 311.7 353.9 311.4 353.9C311.1 353.9 310.8 353.8 310.6 353.7L290.4 342C290.2 341.9 290.1 341.7 290.1 341.5C290.1 341.3 290.2 341.1 290.4 341L305 332.6C305.2 332.5 305.5 332.4 305.8 332.4C306.1 332.4 306.4 332.5 306.6 332.6L309.9 334.5C310.1 334.6 310.2 334.8 310.2 335C310.2 335.2 310.1 335.4 309.9 335.5L300.3 341.1L303.7 343L312.6 337.8C312.8 337.7 313.1 337.6 313.4 337.6C313.7 337.6 314 337.7 314.2 337.8L317.5 339.7C317.7 339.8 317.8 340 317.8 340.2C317.8 340.4 317.7 340.6 317.5 340.7L308.6 345.9L312.1 347.9L322.1 342.3Z" fill="#021947"/>
<path d="M327 326.501C327.2 326.401 327.5 326.301 327.8 326.301C328.1 326.301 328.4 326.401 328.6 326.501L331.8 328.301C332 328.401 332.1 328.601 332.1 328.801C332.1 329.001 332 329.201 331.8 329.301L329 330.901C327.1 332.001 327.1 333.101 329 334.201L336.7 338.601C336.9 338.701 337 338.901 337 339.101C337 339.301 336.9 339.501 336.7 339.601L332.8 341.901C332.6 342.001 332.3 342.101 332 342.101C331.7 342.101 331.4 342.001 331.2 341.901L316.6 333.501C316.4 333.401 316.3 333.201 316.3 333.001C316.3 332.801 316.4 332.601 316.6 332.501L320.2 330.401C320.4 330.301 320.7 330.201 321 330.201C321.3 330.201 321.6 330.301 321.8 330.401L322.5 330.801C322.5 330.301 322.7 329.701 323.1 329.201C323.5 328.601 324.1 328.101 325.1 327.501L327 326.501Z" fill="#021947"/>
<path d="M342.1 317.801C342.3 317.701 342.6 317.601 342.9 317.601C343.2 317.601 343.5 317.701 343.7 317.801L346.9 319.601C347.1 319.701 347.2 319.901 347.2 320.101C347.2 320.301 347.1 320.501 346.9 320.601L344.1 322.201C342.2 323.301 342.2 324.401 344.1 325.501L351.8 329.901C352 330.001 352.1 330.201 352.1 330.401C352.1 330.601 352 330.801 351.8 330.901L347.9 333.201C347.7 333.301 347.4 333.401 347.1 333.401C346.8 333.401 346.5 333.301 346.3 333.201L331.7 324.801C331.5 324.701 331.4 324.501 331.4 324.301C331.4 324.101 331.5 323.901 331.7 323.801L335.3 321.701C335.5 321.601 335.8 321.501 336.1 321.501C336.4 321.501 336.7 321.601 336.9 321.701L337.6 322.101C337.6 321.601 337.8 321.001 338.2 320.401C338.6 319.801 339.2 319.301 340.2 318.801L342.1 317.801Z" fill="#021947"/>
<path d="M369 310.301C369.3 310.501 369.7 310.701 370.2 311.001C370.7 311.301 371.1 311.501 371.4 311.701C372.4 312.301 373.1 313.001 373.5 313.701C374 314.401 374.2 315.201 374.1 316.001C374 316.801 373.7 317.601 373 318.401C372.3 319.201 371.4 320.001 370.1 320.701C368.8 321.401 367.5 322.001 366.1 322.401C364.7 322.801 363.3 323.001 361.9 323.001C360.5 323.001 359.2 322.901 357.9 322.701C356.6 322.401 355.4 322.001 354.4 321.501C354.1 321.301 353.7 321.101 353.2 320.801C352.7 320.501 352.3 320.301 352 320.101C351 319.501 350.3 318.801 349.8 318.101C349.3 317.401 349.2 316.601 349.2 315.801C349.3 315.001 349.6 314.201 350.3 313.401C350.9 312.601 351.9 311.801 353.2 311.101C354.5 310.401 355.8 309.801 357.2 309.401C358.6 309.001 360 308.801 361.4 308.801C362.8 308.801 364.1 308.901 365.4 309.101C366.8 309.301 368 309.701 369 310.301ZM359.9 318.101C360.8 318.501 361.7 318.701 362.6 318.701C363.6 318.701 364.5 318.401 365.3 317.901C366.1 317.401 366.6 316.901 366.6 316.301C366.7 315.701 366.3 315.201 365.6 314.701C365.3 314.501 365 314.301 364.6 314.101C364.2 313.901 363.8 313.701 363.5 313.501C362.6 313.101 361.7 312.901 360.8 312.901C359.8 312.901 358.9 313.201 358.1 313.701C357.3 314.201 356.8 314.701 356.8 315.301C356.7 315.901 357.1 316.401 357.8 316.901C358.1 317.101 358.4 317.301 358.8 317.501C359.2 317.801 359.5 318.001 359.9 318.101Z" fill="#021947"/>
<path d="M377.1 297.6C377.3 297.5 377.6 297.4 377.9 297.4C378.2 297.4 378.5 297.5 378.7 297.6L381.9 299.4C382.1 299.5 382.2 299.7 382.2 299.9C382.2 300.1 382.1 300.3 381.9 300.4L379.1 302C377.2 303.1 377.2 304.2 379.1 305.3L386.8 309.7C387 309.8 387.1 310 387.1 310.2C387.1 310.4 387 310.6 386.8 310.7L382.9 313C382.7 313.1 382.4 313.2 382.1 313.2C381.8 313.2 381.5 313.1 381.3 313L366.7 304.6C366.5 304.5 366.4 304.3 366.4 304.1C366.4 303.9 366.5 303.7 366.7 303.6L370.3 301.5C370.5 301.4 370.8 301.3 371.1 301.3C371.4 301.3 371.7 301.4 371.9 301.5L372.6 301.9C372.6 301.4 372.8 300.8 373.2 300.3C373.6 299.7 374.2 299.2 375.2 298.6L377.1 297.6Z" fill="#021947"/>
<path d="M276.8 166.799C277.7 162.699 261.1 172.299 260.2 176.399L265.5 190.799C265.7 191.299 266 191.599 266.4 191.799C267.6 192.499 271.9 194.999 272.3 195.199C273.5 195.899 275.2 195.499 275.7 193.899L282.6 170.199C283.1 168.099 276.8 166.799 276.8 166.799Z" fill="#FFC001"/>
<path opacity="0.25" d="M276.8 166.799C277.7 162.699 261.1 172.299 260.2 176.399L265.5 190.799C265.7 191.299 266 191.599 266.4 191.799C267.6 192.499 271.9 194.999 272.3 195.199C273.5 195.899 275.2 195.499 275.7 193.899L282.6 170.199C283.1 168.099 276.8 166.799 276.8 166.799Z" fill="black"/>
<path d="M328.7 59.0992L190.4 138.899C189.2 139.599 188.2 141.299 188.2 142.799V218.799C188.2 220.199 189.2 221.899 190.4 222.599L191.8 223.399C193 224.099 195 224.099 196.3 223.399L334.6 143.499C335.8 142.799 336.8 141.099 336.8 139.599V63.6992C336.8 62.2992 335.8 60.5992 334.6 59.8992L333.2 59.0992C331.9 58.3992 329.9 58.3992 328.7 59.0992Z" fill="#FFC001"/>
<path opacity="0.25" d="M328.7 59.0992L190.4 138.899C189.2 139.599 188.2 141.299 188.2 142.799V218.799C188.2 220.199 189.2 221.899 190.4 222.599L191.8 223.399C193 224.099 195 224.099 196.3 223.399L334.6 143.499C335.8 142.799 336.8 141.099 336.8 139.599V63.6992C336.8 62.2992 335.8 60.5992 334.6 59.8992L333.2 59.0992C331.9 58.3992 329.9 58.3992 328.7 59.0992Z" fill="black"/>
<path d="M336.8 63.6996V64.5996C336.8 62.9996 335.1 61.9996 333.7 62.7996L197.1 141.7C196.1 142.2 195.4 143 194.9 143.9C194.9 143.9 194.9 143.9 194.9 144L188.9 140.5C189.3 139.8 189.9 139.2 190.5 138.8L328.8 58.9996C330 58.2996 332 58.2996 333.3 58.9996L334.7 59.7996C335.7 60.5996 336.8 62.2996 336.8 63.6996Z" fill="#FFC001"/>
<path opacity="0.45" d="M336.8 63.6996V64.5996C336.8 62.9996 335.1 61.9996 333.7 62.7996L197.1 141.7C196.1 142.2 195.4 143 194.9 143.9C194.9 143.9 194.9 143.9 194.9 144L188.9 140.5C189.3 139.8 189.9 139.2 190.5 138.8L328.8 58.9996C330 58.2996 332 58.2996 333.3 58.9996L334.7 59.7996C335.7 60.5996 336.8 62.2996 336.8 63.6996Z" fill="white"/>
<path d="M334.7 63.2998C334.5 63.2998 334.3 63.3998 334.1 63.4998L197.5 142.4C195.9 143.3 194.8 145.1 194.8 147V221.1C194.8 221.5 194.9 222.5 195.7 222.5C196 222.5 196.3 222.4 196.7 222.2L267.6 181.3L272 193.6C272.9 195.6 275.7 195.4 276.3 193.4L282.3 172.8L333.3 143.4C335.1 142.3 336 141.3 336 139.9V64.5998C335.9 63.7998 335.3 63.2998 334.7 63.2998Z" fill="white"/>
<path d="M195.7 223.3C194.7 223.3 194 222.4 194 221.1V147C194 144.8 195.2 142.8 197.1 141.7L333.7 62.8C334 62.6 334.4 62.5 334.7 62.5C335.7 62.5 336.7 63.3 336.7 64.5V139.7C336.7 141.9 334.9 143.1 333.6 143.9L283 173.3L277.1 193.6C276.7 194.9 275.6 195.7 274.3 195.8C273 195.9 271.8 195.1 271.3 193.9L267.2 182.5L197.1 222.9C196.6 223.1 196.2 223.3 195.7 223.3ZM334.7 64.1C334.6 64.1 334.5 64.1 334.5 64.2L197.9 143.1C196.5 143.9 195.6 145.4 195.6 147V221.1C195.6 221.5 195.7 221.7 195.7 221.7C195.7 221.7 195.9 221.7 196.3 221.5L268 180.1L272.8 193.3C273.1 194 273.7 194.2 274.2 194.2C274.7 194.2 275.3 193.9 275.6 193.1L281.7 172.2L282 172L333 142.6C335 141.4 335.3 140.5 335.3 139.8V64.6C335.2 64.2 334.8 64.1 334.7 64.1Z" fill="#FFC001"/>
<path d="M210.3 166.299C210.4 163.899 210.7 161.499 211.3 159.199C211.9 156.799 212.7 154.499 213.8 152.399C214.9 150.299 216.2 148.299 217.7 146.499C219.2 144.699 221 143.299 223 142.099C225 140.999 226.7 140.399 228.3 140.399C229.8 140.399 231.1 140.899 232.2 141.799C233.3 142.699 234.1 143.999 234.7 145.699C235.3 147.399 235.6 149.399 235.7 151.699C235.8 153.499 235.8 155.299 235.8 157.299C235.8 159.299 235.8 161.099 235.7 162.799C235.6 165.199 235.3 167.599 234.7 169.899C234.1 172.299 233.3 174.599 232.2 176.699C231.1 178.899 229.8 180.799 228.3 182.599C226.8 184.399 225 185.799 223 186.899C221 188.099 219.2 188.599 217.7 188.599C216.2 188.599 214.9 188.199 213.8 187.199C212.7 186.299 211.9 184.999 211.3 183.199C210.7 181.499 210.4 179.499 210.3 177.199C210.2 175.499 210.2 173.699 210.2 171.799C210.2 169.999 210.2 168.099 210.3 166.299ZM228.1 166.799C228.1 165.999 228.2 165.199 228.2 164.299C228.2 163.399 228.2 162.399 228.2 161.499C228.2 160.499 228.2 159.599 228.2 158.699C228.2 157.799 228.1 156.999 228.1 156.299C228 155.299 227.9 154.399 227.7 153.699C227.5 152.999 227.1 152.399 226.7 151.999C226.3 151.599 225.8 151.399 225.1 151.399C224.5 151.399 223.7 151.599 222.9 152.099C222.1 152.599 221.3 153.199 220.7 153.899C220.1 154.599 219.6 155.399 219.1 156.299C218.7 157.199 218.4 158.099 218.1 159.099C217.9 160.099 217.7 161.099 217.7 162.199C217.6 162.899 217.6 163.799 217.6 164.699C217.6 165.599 217.6 166.499 217.6 167.499C217.6 168.499 217.6 169.399 217.6 170.299C217.6 171.199 217.6 171.999 217.7 172.699C217.8 174.699 218.3 176.199 219.1 177.099C219.9 177.999 221.2 177.999 222.8 176.999C224.5 175.999 225.7 174.599 226.5 172.799C227.5 170.999 227.9 168.999 228.1 166.799Z" fill="#021947"/>
<path d="M260.9 145.799C260.9 146.399 260.9 147.199 260.9 148.199C260.9 149.199 260.9 149.999 260.9 150.599C260.8 152.599 260.5 154.699 260 156.699C259.5 158.799 258.7 160.699 257.8 162.599C256.9 164.499 255.7 166.099 254.4 167.699C253.1 169.199 251.6 170.499 249.9 171.399C248.3 172.399 246.8 172.799 245.4 172.899C244.1 172.899 242.9 172.599 242 171.799C241.1 170.999 240.3 169.899 239.8 168.499C239.3 167.099 239 165.399 238.9 163.399C238.9 162.799 238.9 161.999 238.9 160.999C238.9 159.999 238.9 159.199 238.9 158.599C238.9 156.599 239.2 154.599 239.8 152.499C240.3 150.399 241.1 148.499 242 146.599C243 144.699 244.1 142.999 245.4 141.499C246.7 139.999 248.2 138.699 249.9 137.799C251.5 136.899 253 136.399 254.4 136.399C255.7 136.399 256.9 136.799 257.8 137.499C258.8 138.299 259.5 139.399 260 140.799C260.6 142.199 260.9 143.899 260.9 145.799ZM246.2 158.799C246.3 160.299 246.7 161.399 247.3 161.899C248 162.399 248.8 162.399 249.9 161.699C251 161.099 251.8 160.099 252.5 158.899C253.2 157.599 253.5 156.199 253.6 154.499C253.7 153.799 253.7 153.099 253.7 152.299C253.7 151.499 253.7 150.799 253.6 150.199C253.5 148.699 253.1 147.599 252.5 147.099C251.8 146.599 251 146.599 249.9 147.299C248.8 147.899 247.9 148.899 247.3 150.099C246.6 151.399 246.3 152.799 246.2 154.499C246.1 155.199 246.1 155.899 246.1 156.699C246.1 157.499 246.1 158.199 246.2 158.799Z" fill="#021947"/>
<path d="M277.5 155.5C276.7 156 276 156.2 275.4 156.3C274.8 156.4 274.3 156.4 273.9 156.3C273.5 156.2 273.1 156 272.8 155.7C272.5 155.4 272.3 155.2 272.1 154.9V168.2C272.1 168.7 272 169.1 271.8 169.6C271.6 170.1 271.3 170.4 271 170.5L265.9 173.4C265.6 173.6 265.3 173.6 265.1 173.3C264.9 173.1 264.8 172.8 264.8 172.3V131.4C264.8 130.9 264.9 130.5 265.1 130C265.3 129.5 265.6 129.2 265.9 129.1L270.8 126.3C271.1 126.1 271.4 126.1 271.6 126.4C271.8 126.6 271.9 126.9 271.9 127.4V128.8C272.1 128.2 272.4 127.7 272.7 127C273 126.4 273.3 125.8 273.8 125.2C274.2 124.6 274.7 124 275.3 123.4C275.9 122.8 276.7 122.3 277.5 121.8C278.7 121.1 279.9 120.7 280.9 120.7C282 120.6 282.9 121 283.7 121.7C284.5 122.4 285.2 123.5 285.7 125C286.2 126.5 286.5 128.5 286.5 130.9C286.5 131.5 286.5 132.3 286.5 133.4C286.5 134.5 286.5 135.3 286.5 135.9C286.4 138.4 286.2 140.7 285.7 142.7C285.2 144.8 284.5 146.6 283.7 148.3C282.9 150 281.9 151.4 280.9 152.6C279.8 153.8 278.7 154.8 277.5 155.5ZM279.3 139.4C279.4 138.2 279.4 137 279.3 135.9C279.2 134.5 278.9 133.4 278.4 132.6C277.9 131.8 277 131.8 275.7 132.5C275.1 132.8 274.6 133.3 274.2 133.8C273.8 134.3 273.4 134.9 273.1 135.6C272.8 136.2 272.6 136.9 272.4 137.6C272.2 138.3 272.1 138.9 272.1 139.6C272 140.3 272 141 272 141.8C272 142.6 272 143.3 272.1 143.9C272.2 144.5 272.3 145 272.4 145.5C272.6 146 272.8 146.4 273.1 146.7C273.4 147 273.7 147.2 274.2 147.2C274.6 147.2 275.1 147.1 275.7 146.7C277 146 277.9 144.9 278.4 143.5C278.9 142.3 279.2 140.9 279.3 139.4Z" fill="#021947"/>
<path d="M302.3 130.799C302.3 130.299 302.2 129.999 302 129.899C301.8 129.799 301.5 129.799 301 129.899C300.5 129.999 299.9 130.199 299.1 130.499C298.3 130.799 297.3 131.099 296.1 131.499C294 132.099 292.5 131.799 291.4 130.699C290.3 129.599 289.7 127.599 289.7 124.799C289.7 123.399 289.9 121.899 290.4 120.499C290.9 118.999 291.5 117.599 292.3 116.199C293.1 114.799 294.1 113.499 295.3 112.299C296.5 111.099 297.8 110.099 299.2 109.299C300.6 108.499 301.9 107.999 303.1 107.799C304.3 107.599 305.3 107.699 306.2 107.999C307.1 108.299 307.7 108.899 308.2 109.599C308.7 110.399 309 111.299 309 112.299C309 112.699 308.9 113.199 308.7 113.699C308.5 114.199 308.2 114.499 307.9 114.699L303.1 117.499C302.8 117.699 302.6 117.699 302.4 117.599C302.2 117.499 302 117.399 301.8 117.299C301.6 117.199 301.2 117.099 300.8 117.199C300.4 117.199 299.9 117.399 299.2 117.799C298.6 118.199 298.1 118.599 297.6 119.099C297.2 119.599 297 120.199 297 120.799C297 121.299 297.1 121.599 297.2 121.699C297.3 121.899 297.6 121.899 298 121.799C298.4 121.699 299 121.499 299.7 121.299C300.4 120.999 301.4 120.699 302.6 120.299C305.1 119.499 306.8 119.799 308 120.999C309.1 122.299 309.7 124.199 309.7 126.699C309.7 128.099 309.5 129.599 309 131.099C308.5 132.599 307.9 134.099 307 135.499C306.1 136.899 305 138.299 303.8 139.599C302.5 140.899 301.1 141.999 299.5 142.899C297.9 143.799 296.5 144.399 295.2 144.499C294 144.599 292.9 144.499 292.1 144.099C291.3 143.699 290.6 143.099 290.2 142.299C289.8 141.499 289.5 140.599 289.4 139.699C289.4 139.299 289.5 138.799 289.7 138.299C289.9 137.799 290.2 137.499 290.5 137.299L295.5 134.399C295.8 134.199 296 134.199 296.1 134.399C296.2 134.599 296.4 134.699 296.6 134.799C296.8 134.899 297.1 134.999 297.5 134.999C297.9 134.999 298.5 134.799 299.3 134.299C300.1 133.799 300.8 133.299 301.4 132.599C302 132.099 302.3 131.399 302.3 130.799Z" fill="#021947"/>
<path d="M320.6 114.9C320.6 115.4 320.5 115.8 320.3 116.3C320.1 116.8 319.8 117.1 319.5 117.2L314.4 120.1C314.1 120.3 313.8 120.3 313.6 120C313.4 119.8 313.3 119.5 313.3 119V92.1997C313.3 91.6997 313.4 91.2997 313.6 90.7997C313.8 90.2997 314.1 89.9997 314.4 89.8997L319.5 86.9997C319.8 86.7997 320.1 86.7997 320.3 87.0997C320.5 87.2997 320.6 87.5997 320.6 88.0997V114.9ZM320.6 128.3C320.6 128.8 320.5 129.2 320.3 129.7C320.1 130.2 319.8 130.5 319.5 130.6L314.4 133.5C314.1 133.7 313.8 133.7 313.6 133.4C313.4 133.2 313.3 132.9 313.3 132.4V126.1C313.3 125.6 313.4 125.2 313.6 124.7C313.8 124.2 314.1 123.9 314.4 123.8L319.5 120.9C319.8 120.7 320.1 120.7 320.3 121C320.5 121.2 320.6 121.5 320.6 122V128.3Z" fill="#021947"/>
<path d="M124.2 160.599C124.9 162.099 125.5 163.599 125.8 165.199C126.5 169.099 125.1 173.099 124.3 176.999C124 178.299 123.9 179.499 124.9 180.599C125.1 180.799 125.4 180.999 125.6 180.999C125.8 180.899 126 180.699 126.1 180.499C127 178.899 127.8 177.199 128.3 175.399C128.4 177.099 128.3 178.799 128.1 180.499C127.9 181.799 127.6 183.199 128.1 184.499C128.5 185.799 130 186.799 131.1 186.199C131.8 185.799 132.2 184.899 132.4 183.999C132.7 182.999 133 181.999 133.3 180.999C133.7 179.599 134.2 178.199 134.4 176.799C135.4 171.599 134.2 165.999 131.2 161.799C130.4 160.699 129.4 159.599 128.2 159.099C127 158.599 125.7 158.699 124.6 159.299C124.1 159.599 123.8 159.799 124.2 160.599Z" fill="#F28F8F"/>
<path d="M137 167.499C136.6 162.299 136.4 156.699 135.4 151.799C134.4 146.799 132.3 127.699 131.4 122.399C130.2 115.399 128.5 110.999 127.5 106.699C126.4 101.899 125.4 95.1994 123.4 84.6994C121.4 74.1994 118.9 68.2994 113.7 64.8994C108.9 61.7994 104.9 60.9994 100.7 60.8994C99.5 64.0994 100.6 75.4994 100.6 75.4994C100.6 75.4994 105.7 99.6994 106.1 102.599C106.6 105.599 112 119.199 115.6 130.199C117.7 136.499 120.8 145.499 120.8 145.499C121.7 149.499 122.1 150.699 121.3 153.799C121 155.099 120.4 156.399 120.1 157.699C119.7 159.099 119.5 160.599 119.4 162.099C119.3 163.099 119.4 164.099 119.3 165.099C119.2 166.999 118.9 168.799 118.7 170.599C118.5 171.999 119.3 172.799 120.7 172.399C121.7 172.099 122.5 171.199 123 170.299C123.7 168.999 123.9 167.499 124.2 166.099C124.4 165.399 125.2 161.299 126.5 162.399C127.6 163.399 128.8 166.599 130.3 168.799C131.8 170.999 132.5 172.399 132.3 175.699C132.1 179.099 130.4 183.499 131 186.399C131.5 189.199 133.1 189.799 133.7 188.699C134.3 187.499 136 180.699 136.6 178.299C137 175.899 137.4 172.399 137 167.499Z" fill="#FFA8A7"/>
<path d="M124 163.7C130.1 166.4 137.7 167.8 141 180.8C144.3 193.8 148.3 241.6 148.3 241.6C148.3 241.6 144 247.9 135 247.9L135.5 261.5C135.5 261.5 126.6 265.8 113.3 262.4C107 260.9 103 255 103 255C103 255 104.5 216.4 105.6 201.7C106.6 186.9 108 156.6 124 163.7Z" fill="#455A64"/>
<path d="M132.9 195.5C132.9 195.5 134.5 234.5 135 248C136.6 248 138.1 247.8 139.4 247.5L132.9 195.5Z" fill="#37474F"/>
<path d="M119.2 165C119.1 166.9 118.8 168.7 118.6 170.5C118.4 171.9 119.2 172.7 120.6 172.3C121.6 172 122.4 171.1 122.9 170.2C123.6 168.9 123.8 167.4 124.1 166C124.2 165.5 124.7 162.9 125.6 162.3L119.4 162.1C119.3 163 119.3 164 119.2 165ZM125.5 162.3H126.3C126 162 125.8 162.1 125.5 162.3Z" fill="#FFA8A7"/>
<path d="M106.2 60.0996C116.1 64.1996 119.2 67.3996 121.1 73.3996C123 79.3996 126 94.4996 127 101.1C128 107.7 130.5 113.6 131.8 122.2C133.2 130.8 134.5 143.3 134.5 143.3C134.5 143.3 132.7 145.6 127.3 145.9C121.9 146.2 119.1 144.3 119.1 144.3C119.1 144.3 113.4 127.1 111.2 121.4C109 115.7 104.1 101.4 104.1 101.4L106.2 60.0996Z" fill="#E6E6E6"/>
<path d="M21.7998 298.8L28.3998 300.8L29.3998 296L23.9998 296.5L21.7998 298.8Z" fill="black"/>
<path d="M23.5999 285.5C23.5999 285.5 20.7999 288.7 19.9999 289.7C19.0999 290.7 21.0999 297.4 21.7999 298.8L23.9999 296.6C24.1999 298.3 23.8999 300 23.4999 302.5C23.1999 304.7 22.0999 308.3 22.9999 312.1C24.2999 317.7 28.6999 323.3 34.0999 327.8C39.4999 332.3 43.7999 333.4 46.2999 333.4C48.7999 333.4 50.3999 332.4 51.0999 330.7C51.7999 328.9 23.5999 285.5 23.5999 285.5Z" fill="#021947"/>
<path d="M47.2998 285.6L48.8998 283.7C49.9998 284.5 47.8998 287.4 47.4998 291C46.9998 295.9 46.7998 302.3 47.5998 307.1C49.2998 316.6 51.7998 323.7 52.5998 328C53.5998 333.7 43.8998 334.1 35.0998 326.6C30.7998 322.9 24.4998 314.4 24.2998 310C24.0998 305.6 25.8998 300.4 25.5998 297C25.2998 293.7 22.8998 288.7 23.5998 285.5C23.9998 283.7 26.5998 281 28.9998 278.7C31.1998 276.6 32.9998 272.1 34.0998 273.4L33.2998 275C32.9998 276.4 33.9998 279.8 37.1998 283.2C38.6998 284.8 43.9998 289.2 47.2998 285.6Z" fill="#455A64"/>
<path opacity="0.15" d="M39.9998 285.5C41.8998 286.7 44.1998 287.6 46.0998 286.5C46.0998 286.5 46.0998 286.5 46.1998 286.5C46.1998 286.5 44.3998 288 44.4998 291.1C44.6998 294.3 44.5998 315.6 44.5998 315.6C44.5998 315.6 43.5998 297.1 43.2998 293.6C42.9998 288.5 42.3998 287.5 39.9998 285.5Z" fill="black"/>
<path d="M52.5998 327.999C51.9998 324.399 50.0998 318.699 48.4998 311.299C48.2998 313.599 48.7998 315.899 48.4998 316.499C47.8998 317.999 42.7998 316.899 39.9998 315.799C37.2998 314.599 37.1998 309.399 36.0998 303.799C34.9998 298.299 29.3998 299.399 25.0998 302.699C24.6998 305.099 24.1998 307.599 24.2998 309.899C24.4998 314.299 30.7998 322.799 35.0998 326.499C43.7998 334.099 53.5998 333.699 52.5998 327.999Z" fill="#37474F"/>
<path opacity="0.15" d="M39.4999 290.799C39.1999 291.099 38.7999 291.099 38.4999 290.799C38.1999 290.499 38.1999 290.099 38.4999 289.799C38.7999 289.499 39.1999 289.499 39.4999 289.799C39.7999 290.099 39.7999 290.499 39.4999 290.799Z" fill="black"/>
<path opacity="0.15" d="M39.8998 295.799C39.5998 296.099 39.1998 296.099 38.8998 295.799C38.5998 295.499 38.5998 295.099 38.8998 294.799C39.1998 294.499 39.5998 294.499 39.8998 294.799C40.1998 295.099 40.1998 295.599 39.8998 295.799Z" fill="black"/>
<path opacity="0.15" d="M40.3 300.899C40 301.199 39.6 301.199 39.3 300.899C39 300.599 39 300.199 39.3 299.899C39.6 299.599 40 299.599 40.3 299.899C40.6 300.199 40.6 300.599 40.3 300.899Z" fill="black"/>
<path opacity="0.15" d="M40.6999 305.899C40.3999 306.199 39.9999 306.199 39.6999 305.899C39.3999 305.599 39.3999 305.199 39.6999 304.899C39.9999 304.599 40.3999 304.599 40.6999 304.899C40.9999 305.199 40.9999 305.599 40.6999 305.899Z" fill="black"/>
<path opacity="0.15" d="M41.1 310.999C40.8 311.299 40.4 311.299 40.1 310.999C39.8 310.699 39.8 310.299 40.1 309.999C40.4 309.699 40.8 309.699 41.1 309.999C41.4 310.199 41.4 310.699 41.1 310.999Z" fill="black"/>
<path d="M38.8 290.5C38.8 290.5 38.7 290.4 38.7 290.3C38.7 290.1 38.8 290 38.9 290C39.1 290 43.8 289.5 47.1 292.4C47.2 292.5 47.2 292.7 47.1 292.8C47 292.9 46.8 292.9 46.7 292.8C43.5 290.1 39 290.6 38.9 290.6C39 290.6 38.9 290.6 38.8 290.5Z" fill="#021947"/>
<path d="M39.1999 295.599C39.1999 295.599 39.0999 295.499 39.0999 295.399C39.0999 295.199 39.1999 295.099 39.2999 295.099C39.4999 295.099 44.1999 294.599 47.4999 297.499C47.5999 297.599 47.5999 297.799 47.4999 297.899C47.3999 297.999 47.1999 297.999 47.0999 297.899C43.8999 295.199 39.3999 295.699 39.2999 295.699C39.3999 295.599 39.2999 295.599 39.1999 295.599Z" fill="#021947"/>
<path d="M39.6 300.599C39.6 300.599 39.5 300.499 39.5 300.399C39.5 300.199 39.6 300.099 39.7 300.099C39.9 300.099 44.6 299.599 47.9 302.499C48 302.599 48 302.799 47.9 302.899C47.8 302.999 47.6 302.999 47.5 302.899C44.3 300.199 39.8 300.699 39.7 300.699C39.8 300.699 39.7 300.699 39.6 300.599Z" fill="#021947"/>
<path d="M39.9999 305.599C39.9999 305.599 39.8999 305.499 39.8999 305.399C39.8999 305.199 39.9999 305.099 40.0999 305.099C40.2999 305.099 44.9999 304.599 48.2999 307.499C48.3999 307.599 48.3999 307.799 48.2999 307.899C48.1999 307.999 47.9999 307.999 47.8999 307.899C44.6999 305.199 40.1999 305.699 40.0999 305.699C40.1999 305.699 40.0999 305.699 39.9999 305.599Z" fill="#021947"/>
<path d="M40.3998 310.7C40.3998 310.7 40.2998 310.6 40.2998 310.5C40.2998 310.3 40.3998 310.2 40.4998 310.2C40.6998 310.2 45.3998 309.7 48.6998 312.6C48.7998 312.7 48.7998 312.9 48.6998 313C48.5998 313.1 48.3998 313.1 48.2998 313C45.0998 310.3 40.5998 310.8 40.4998 310.8C40.5998 310.8 40.4998 310.7 40.3998 310.7Z" fill="#021947"/>
<path d="M114.4 139.8C114.4 139.8 115.1 152.3 114.5 178.3C114 200 116.4 211.3 107.7 225.1C99.9 237.4 51.3 284.6 47.8 288.9C47.8 288.9 32.4 290.3 31.7 274.5C31.7 274.5 46 248.9 52.8 234.4C59.6 219.9 68.8 212.9 68.8 212.9L56 149.7L114.4 139.8Z" fill="#021947"/>
<path d="M61.4 148.8L56.1 149.7V149.9L68.3 210.9L68.7 212.4C68.7 212.4 68.7 212.4 68.6 212.4L68.7 212.9C68.7 212.9 62.1 217.9 56 228.1C58.1 233.6 62.4 243.2 62.4 243.2C62.8 244.7 58.5 250.8 60.9 269.2C61.1 270.5 61.4 272.4 61.8 274.5C72.7 263.5 87.6 248.4 97.7 237.3C98.2 234.4 99.7 225 98.8 217.8C98 210.6 94.7 175.2 94.7 175.2C94.7 175.2 98.5 173.1 102.8 167.8C105.9 163.9 106.6 159.6 106.6 159.6C106.6 159.6 109.6 151.2 110.8 145.1L61.4 148.8Z" fill="black"/>
<path d="M80.5999 350.6L87.0999 348.5L85.1999 344L81.0999 347.5L80.5999 350.6Z" fill="black"/>
<path d="M74.4 338.7C74.4 338.7 74 342.9 73.8 344.2C73.7 345.5 79.1 349.9 80.5 350.6L81 347.5C82.2 348.8 82.8 350.3 84 352.6C85 354.5 86.1999 358.2 89.0999 360.7C93.4 364.5 100.2 366.6 107.2 367.2C114.2 367.8 118.3 366.2 120.4 364.8C122.5 363.4 123.2 361.6 122.8 359.8C122.4 358 74.4 338.7 74.4 338.7Z" fill="#021947"/>
<path d="M93.9001 325.2L94.1001 322.8C95.4001 322.8 95.4001 326.3 97.2001 329.5C99.6001 333.8 103.1 339.1 106.6 342.6C113.5 349.4 119.6 353.8 122.7 356.8C126.8 360.9 119 366.8 107.6 365.7C101.9 365.1 91.9001 361.8 89.2001 358.3C86.5001 354.8 85.0001 349.5 82.8001 346.9C80.6001 344.4 75.8001 341.7 74.5001 338.6C73.8001 336.9 74.4001 333.1 75.0001 329.9C75.6001 326.9 74.4001 322.2 76.1001 322.6L76.3001 324.3C76.9001 325.6 79.6001 327.8 84.2001 328.8C86.4001 329.5 93.2001 330 93.9001 325.2Z" fill="#455A64"/>
<path opacity="0.15" d="M87.8 329.3C90 329.2 92.4 328.6 93.4 326.6C93.4 326.6 93.4 326.6 93.4 326.5C93.4 326.5 92.7 328.8 94.7 331.2C96.6 333.7 108.9 351.2 108.9 351.2C108.9 351.2 97.4 336.7 95.2 334C92 330 90.9 329.5 87.8 329.3Z" fill="black"/>
<path d="M122.6 356.8C120 354.2 115.2 350.7 109.6 345.6C110.7 347.6 112.5 349.2 112.6 349.8C113 351.4 108.2 353.4 105.3 354.1C102.4 354.7 99.3 350.5 95.2 346.6C91.1 342.7 87.2 346.9 85.5 352C86.5 354.2 87.6 356.5 89 358.3C91.7 361.8 101.7 365.1 107.4 365.7C118.9 366.8 126.7 360.9 122.6 356.8Z" fill="#37474F"/>
<path opacity="0.15" d="M90.4999 333.901C90.3999 334.301 90.0999 334.501 89.6999 334.501C89.2999 334.401 89.0999 334.101 89.0999 333.701C89.1999 333.301 89.4999 333.101 89.8999 333.101C90.2999 333.201 90.4999 333.501 90.4999 333.901Z" fill="black"/>
<path opacity="0.15" d="M93.6998 337.801C93.5998 338.201 93.2998 338.401 92.8998 338.401C92.4998 338.301 92.2998 338.001 92.2998 337.601C92.3998 337.201 92.6998 337.001 93.0998 337.001C93.4998 337.101 93.7998 337.401 93.6998 337.801Z" fill="black"/>
<path opacity="0.15" d="M96.8998 341.7C96.7998 342.1 96.4998 342.3 96.0998 342.3C95.6998 342.2 95.4998 341.9 95.4998 341.5C95.5998 341.1 95.8998 340.9 96.2998 340.9C96.6998 341 96.9998 341.3 96.8998 341.7Z" fill="black"/>
<path opacity="0.15" d="M100.2 345.601C100.1 346.001 99.7998 346.201 99.3998 346.201C98.9998 346.101 98.7998 345.801 98.7998 345.401C98.8998 345.001 99.1998 344.801 99.5998 344.801C99.9998 344.801 100.2 345.201 100.2 345.601Z" fill="black"/>
<path opacity="0.15" d="M103.4 349.5C103.3 349.9 103 350.1 102.6 350.1C102.2 350 102 349.7 102 349.3C102.1 348.9 102.4 348.7 102.8 348.7C103.2 348.7 103.5 349.1 103.4 349.5Z" fill="black"/>
<path d="M89.7999 334.1C89.6999 334.1 89.6999 334.1 89.5999 334C89.4999 333.9 89.4999 333.7 89.5999 333.6C89.6999 333.5 93.2999 330.4 97.6999 330.8C97.8999 330.8 97.9999 331 97.8999 331.1C97.8999 331.3 97.6999 331.4 97.5999 331.4C93.3999 331 89.9999 334 89.9999 334.1C89.8999 334.1 89.7999 334.1 89.7999 334.1Z" fill="#021947"/>
<path d="M92.9999 338C92.8999 338 92.8999 338 92.7999 337.9C92.6999 337.8 92.6999 337.6 92.7999 337.5C92.8999 337.4 96.4998 334.3 100.9 334.7C101.1 334.7 101.2 334.9 101.1 335C101.1 335.2 100.9 335.3 100.8 335.3C96.5999 334.9 93.1998 337.9 93.1998 338C93.0998 338 93.0999 338 92.9999 338Z" fill="#021947"/>
<path d="M96.2 341.9C96.1 341.9 96.1 341.9 96 341.8C95.9 341.7 95.9 341.5 96 341.4C96.1 341.3 99.7001 338.2 104.1 338.6C104.3 338.6 104.4 338.8 104.3 338.9C104.3 339.1 104.1 339.2 104 339.2C99.8 338.8 96.4001 341.8 96.4001 341.9C96.4001 341.9 96.3 341.9 96.2 341.9Z" fill="#021947"/>
<path d="M99.4 345.8C99.3 345.8 99.3 345.8 99.2 345.7C99.1 345.6 99.1 345.4 99.2 345.3C99.3 345.2 102.9 342.1 107.3 342.5C107.5 342.5 107.6 342.7 107.5 342.8C107.5 343 107.3 343.1 107.2 343.1C103 342.7 99.6 345.7 99.6 345.8C99.6 345.7 99.5 345.8 99.4 345.8Z" fill="#021947"/>
<path d="M102.7 349.7C102.6 349.7 102.6 349.7 102.5 349.6C102.4 349.5 102.4 349.3 102.5 349.2C102.6 349.1 106.2 346 110.6 346.4C110.8 346.4 110.9 346.6 110.8 346.7C110.8 346.9 110.6 347 110.5 347C106.3 346.6 102.9 349.6 102.9 349.7C102.8 349.6 102.7 349.7 102.7 349.7Z" fill="#021947"/>
<path d="M44.2999 135.8C44.2999 135.8 43.8999 151.8 43.9999 159C44.0999 173.7 46.9999 179.8 50.5999 192.2C53.5999 202.3 65.6999 239.2 66.5999 242.8C65.2999 250.6 63.9999 257.5 66.5999 274.5C70.3999 299.1 74.5999 328.3 74.5999 328.3C76.8999 331.4 92.1999 332.6 96.6999 328C96.6999 328 97.9999 249.4 97.4999 233.3C97.0999 219.3 90.5999 173.5 90.5999 173.5C90.5999 173.5 111.5 164.7 113.3 140.1L44.2999 135.8Z" fill="#021947"/>
<path d="M73.5999 164C60.3999 164 51.5999 161.2 44.0999 154.7C44.1999 139.9 44.3999 121.3 44.5999 107.7L44.6999 102.9C44.7999 92.0996 44.9999 84.8996 46.2999 77.1996C47.1999 71.5996 49.3999 64.4996 52.5999 62.6996C56.3999 60.5996 58.8999 59.2996 64.9999 56.6996C67.4999 55.5996 69.0999 54.5996 70.6999 53.0996C72.9999 53.2996 93.9999 54.9996 106 60.4996C108.7 61.7996 117.2 72.7996 116.2 88.0996C113.7 125.4 114.6 147.3 114.6 148.9C113.6 151.5 105.8 161.4 86.3999 163.2C81.5999 163.8 77.3999 164 73.5999 164Z" fill="#FAFAFA"/>
<path d="M70.7999 53.5996C73.9999 53.8996 94.1998 55.5996 105.9 60.9996C108.5 62.1996 116.8 73.0996 115.8 88.1996C113.4 124.8 114.1 146.6 114.2 149C113.8 149.9 112 152.8 107.7 155.7C103.9 158.4 97.0999 161.9 86.4999 162.9C81.5999 163.4 77.3999 163.6 73.6999 163.6C60.7999 163.6 52.0999 160.9 44.6999 154.6C44.7999 139.9 44.9999 121.4 45.1999 107.9L45.2999 103C45.3999 92.1996 45.5999 84.9996 46.8999 77.3996C47.8999 71.4996 50.0999 64.7996 52.9999 63.1996C56.7999 61.0996 59.2999 59.7996 65.2999 57.1996C67.4999 56.0996 69.1999 55.0996 70.7999 53.5996ZM70.3999 52.5996C68.8999 54.0996 67.2999 55.1996 64.6999 56.1996C58.4999 58.7996 55.9999 60.0996 52.2999 62.1996C48.7999 64.1996 46.5999 71.8996 45.6999 77.0996C44.3999 84.8996 44.1999 91.8996 44.0999 102.9C43.8999 117.1 43.5999 138.4 43.5999 155C51.2999 161.8 60.1999 164.6 73.5999 164.6C77.4999 164.6 81.7999 164.4 86.4999 163.9C107 162 114.4 151.1 115.1 149.2C115.1 149.2 114.1 127.4 116.6 88.2996C117.6 72.7996 109 61.4996 106.1 60.1996C93.2999 54.0996 70.3999 52.5996 70.3999 52.5996Z" fill="#E0E0E0"/>
<path d="M70.7999 8.49966C64.5999 15.4997 66.5999 23.7997 68.7999 31.9997C71.3999 41.3997 71.5999 44.4997 76.9999 46.7997C75.7999 17.1997 85.1999 53.4997 109 30.4997C113.3 26.2997 113.6 13.4997 108.4 7.59966C101 -0.600338 82.9999 -4.70034 70.7999 8.49966Z" fill="#37474F"/>
<path d="M69.5998 41.3995C73.8998 43.1995 75.8998 40.1995 75.8998 40.1995L72.0998 51.1995C72.0998 51.1995 69.6998 57.9995 75.1998 61.3995C90.5998 70.5995 87.0998 74.4995 92.2998 78.9995C94.0998 76.7995 93.7998 66.8995 94.0998 64.2995L97.4998 53.6995C97.4998 53.6995 100.3 53.7995 102.8 53.4995C106.9 52.8995 109.2 49.9994 110.5 45.5994C112.6 38.4994 112.3 27.6995 109.7 13.7995C105.2 10.1995 90.0998 9.39945 80.2998 15.3995C80.5998 23.5995 78.3998 24.8995 78.3998 28.3995C78.3998 32.3995 78.0998 33.2994 76.8998 33.7994C75.6998 34.2994 74.5998 32.4994 74.0998 31.2994C73.2998 29.2994 72.5998 28.0995 70.5998 27.5995C68.5998 27.0995 66.4998 27.3995 64.6998 29.9995C62.0998 33.9995 66.3998 40.0995 69.5998 41.3995Z" fill="#FFA8A7"/>
<path d="M97.3998 53.6992C92.4998 53.4992 85.6998 50.8992 82.8998 48.2992C80.0998 45.6992 78.2998 40.6992 78.2998 40.6992C78.2998 40.6992 78.1998 45.6992 81.7998 49.9992C85.3998 54.3992 96.2998 56.7992 96.2998 56.7992L97.3998 53.6992Z" fill="#F28F8F"/>
<path d="M94.7998 17.5996C94.6998 17.5996 94.4998 17.6996 94.4998 17.7996C94.4998 17.8996 94.5998 17.9996 94.6998 17.9996C94.8998 18.0996 94.9998 18.1996 95.1998 18.2996C95.3998 18.3996 95.4998 18.5996 95.5998 18.6996C95.6998 18.7996 95.6998 18.9996 95.6998 19.0996C95.6998 19.2996 95.6998 19.5996 95.7998 19.7996C95.7998 19.9996 95.9998 20.0996 96.0998 19.9996C96.1998 19.8996 96.1998 19.8996 96.1998 19.7996C96.2998 19.4996 96.3998 19.2996 96.2998 18.9996C96.2998 18.8996 96.1998 18.6996 96.1998 18.5996C96.0998 17.9996 95.4998 17.5996 94.7998 17.5996ZM102.3 17.8996C102.4 17.5996 102.1 17.2996 101.8 17.3996C101.3 17.5996 100.9 18.0996 100.8 18.5996C100.6 19.2996 100.6 20.1996 101.2 20.7996C101.3 20.8996 101.4 20.8996 101.5 20.8996C101.7 20.6996 101.5 19.8996 101.6 19.6996C101.6 19.3996 101.7 18.9996 101.9 18.6996C101.9 18.3996 102.2 18.1996 102.3 17.8996ZM98.1998 16.1996C98.0998 16.0996 97.9998 16.1996 97.9998 16.2996C97.8998 16.4996 97.9998 16.6996 98.0998 16.7996C98.1998 16.9996 98.2998 17.1996 98.2998 17.3996C98.3998 17.7996 98.4998 18.1996 98.4998 18.5996C98.4998 18.9996 98.4997 19.3996 98.3997 19.7996C98.2997 20.1996 98.1998 20.4996 98.1998 20.8996C98.1998 20.8996 98.1998 20.9996 98.2998 20.9996C98.9998 20.3996 99.0998 19.5996 99.0998 18.7996C99.0998 18.2996 98.9997 17.8996 98.8997 17.3996C98.7997 16.9996 98.5998 16.3996 98.1998 16.1996Z" fill="#F28F8F"/>
<path d="M89.4998 21.0994L93.8998 19.3994C94.2998 20.6994 93.6998 22.0994 92.4998 22.4994C91.1998 22.9994 89.8998 22.2994 89.4998 21.0994Z" fill="#37474F"/>
<path d="M103.4 18.6992L107.7 20.7992C107.2 21.9992 105.8 22.4992 104.6 21.8992C103.4 21.3992 102.9 19.8992 103.4 18.6992Z" fill="#37474F"/>
<path d="M93.8997 25.5996C93.4997 24.5996 92.8997 25.9996 91.6997 26.4996C90.4997 26.9996 89.1997 26.3996 89.5997 27.3996C89.9997 28.3996 91.2997 28.7996 92.4997 28.2996C93.5997 27.7996 94.2997 26.5996 93.8997 25.5996Z" fill="#021947"/>
<path d="M107.7 26.5995C107.9 25.5995 106.6 26.3995 105.4 26.0995C104.1 25.7995 103.4 24.4995 103.2 25.5995C103 26.5995 103.8 27.6995 105 27.9995C106.3 28.1995 107.5 27.5995 107.7 26.5995Z" fill="#021947"/>
<path d="M97.2998 23.1992L99.0998 36.1992L105.6 34.6992C104.1 30.8992 100.1 24.8992 97.2998 23.1992Z" fill="#F28F8F"/>
<path d="M94.2997 39.1992C93.9997 39.3992 93.6997 39.5992 93.5997 39.8992C92.9997 40.7992 93.7997 41.2992 94.6997 41.3992C95.5997 41.4992 96.5997 41.7992 97.3997 42.1992C97.7997 42.3992 98.1997 42.6992 98.6997 42.5992C98.9997 42.5992 99.2997 42.3992 99.3997 42.1992C99.4997 41.9992 99.5997 41.6992 99.4997 41.3992C99.3997 40.3992 98.5997 39.2992 97.4997 38.8992C96.3997 38.4992 95.1997 38.5992 94.2997 39.1992Z" fill="#B16668"/>
<path d="M97.3997 42.299C97.5997 42.399 97.7997 42.499 97.9997 42.599C97.5997 40.799 95.9997 39.499 94.0997 39.499C93.8997 39.699 93.6997 39.799 93.5997 40.099C92.9997 40.999 93.7997 41.499 94.6997 41.599C95.5997 41.599 96.4997 41.799 97.3997 42.299Z" fill="#F28F8F"/>
<path d="M90.5 85.3996C85.8 82.0996 77 74.9996 69.7 53.5996L66.8 55.5996C66.8 55.5996 71.4 77.4996 89.7 88.6996L90.5 85.3996Z" fill="#FFC001"/>
<path d="M94.9001 84.9992C96.3001 83.1992 99.4001 70.5992 96.2001 57.1992L98.7001 59.6992C101.3 72.8992 98.5001 85.0992 96.0001 88.7992L94.9001 84.9992Z" fill="#FFC001"/>
<path d="M94.7 91.7998C94.7 91.7998 100.2 130.5 100.4 134.3C100.6 138.1 94.7 147.4 93.8 147.8C93 148.3 87.6 139.3 87.6 136.3C87.5 133.3 91.5 91.7998 91.5 91.7998H94.7Z" fill="#FFC001"/>
<path d="M94.9 84.9998C94.9 84.9998 92.6 84.4998 90.4 85.3998C89.6 86.8998 89.3 89.1998 89.9 90.2998C90.6 91.3998 91.8 93.0998 93.3 92.9998C94.8 92.8998 96.1 90.9998 96.3 89.0998C96.6 87.1998 94.9 84.9998 94.9 84.9998Z" fill="#FFC001"/>
<path opacity="0.2" d="M94.9 84.9998C94.9 84.9998 92.6 84.4998 90.4 85.3998C89.6 86.8998 89.3 89.1998 89.9 90.2998C90.6 91.3998 91.8 93.0998 93.3 92.9998C94.8 92.8998 96.1 90.9998 96.3 89.0998C96.6 87.1998 94.9 84.9998 94.9 84.9998Z" fill="white"/>
<path d="M92.2 78.9992C89.5 75.8992 88.6 66.6992 86.6 65.1992C84.6 63.6992 73.1 56.5992 72 51.4992L73.3 47.7992C71.9 47.1992 70.1 51.5992 64.8 56.2992C64.8 56.2992 64.2 61.6992 68.2 67.6992C72.9 74.8992 77.1 77.2992 77.1 77.2992C77.1 77.2992 82.9 69.7992 83.8 69.4992C84.6 69.1992 89 77.8992 92.2 78.9992Z" fill="#F0F0F0"/>
<path d="M92.2 78.999C93.6 76.499 93.4 66.099 93.8 64.799C94.7 61.899 97.2 54.499 97.2 54.499C97.2 54.499 97.9 54.999 98.3 55.599C103.1 61.799 102.9 70.699 101.6 73.399C100.2 70.499 96.9 66.699 96.4 67.499C95.8 68.199 94.7 77.699 92.2 78.999Z" fill="#F0F0F0"/>
<path d="M74.2999 205.499L76.5999 253.099C76.6999 255.399 75.0999 256.799 73.1999 258.099L68.2999 261.199C66.9999 262.099 66.1999 262.399 64.3999 262.199C63.5999 262.099 62.2999 261.499 61.6999 261.199H61.5999L61.2999 261.099L8.79985 233.999C4.99985 231.999 2.49985 228.099 2.19985 223.799L0.0998535 180.399C0.0998535 179.399 0.699853 178.199 1.49985 177.599L9.79985 172.199C10.5999 171.699 11.9999 171.599 12.8999 171.999L72.5999 202.699C72.9999 202.899 73.4999 203.299 73.7999 203.799C74.0999 204.499 74.2999 204.999 74.2999 205.499Z" fill="#37474F"/>
<path d="M74.3 205.499L76.6 253.099C76.7 255.399 75.1 256.799 73.2 258.099L68.3 261.199C67 262.099 66.2 262.399 64.4 262.199C63.6 262.099 62.3 261.499 61.7 261.199C63.7 261.999 65.3 260.899 65.1 258.599L63 213.699C63 212.999 62.7 212.099 62.2 211.399L73.8 203.999C74.1 204.499 74.3 204.999 74.3 205.499Z" fill="#021947"/>
<path d="M62.9999 213.698C62.8999 212.198 61.7999 210.398 60.3999 209.698L3.89992 180.698C1.69992 179.598 -0.100077 180.698 0.099923 183.198L2.09992 223.798C2.29992 228.098 4.79992 231.998 8.69992 233.998L61.3999 261.098C63.5999 262.198 65.3999 261.098 65.1999 258.598L62.9999 213.698Z" fill="#455A64"/>
<path d="M7.09995 174.099L67 205.199C68.7 206.099 69.8 207.799 69.9 209.799L72.3 258.799L71.3999 259.399L69 209.799C68.9 208.199 68 206.699 66.5 205.999L6.19995 174.699L7.09995 174.099Z" fill="#FFC001"/>
<path opacity="0.2" d="M69 207.099C69.5 207.899 69.8 208.799 69.9 209.799L72.3 258.799L71.4 259.399L69 209.799C69 208.999 68.7 208.199 68.3 207.599L69 207.099Z" fill="black"/>
<path opacity="0.2" d="M68.3001 207.499C67.9001 206.799 67.3 206.299 66.6 205.899L6.30005 174.599L7.20005 173.999L67 205.199C67.9 205.599 68.6 206.299 69.1 207.099" fill="black"/>
<path d="M28.0999 179.199L28.5 186.599L25.7 188.399L25.2 178.599C25.2 178.099 25.5 177.899 26 178.099L28.0999 179.199Z" fill="#FFC001"/>
<path opacity="0.4" d="M28.0999 179.199L28.5 186.599L25.7 188.399L25.2 178.599C25.2 178.099 25.5 177.899 26 178.099L28.0999 179.199Z" fill="black"/>
<path d="M48.7 185.499L49.3 197.399L46.6 199.099L44.7 198.099L44.2 188.299C44.2 187.799 43.8 187.199 43.3 186.999L28.8 179.599L25.8 178.099C25.3 177.899 25 178.099 25 178.599L25.5 188.399L23.6 187.399L23 175.499C23 175.399 23 175.399 23 175.299C23 174.799 23.3 174.299 23.7 173.999L24.8 173.299C25.2 172.999 25.9 172.999 26.4 173.199L47.7 184.099C48.3 184.399 48.7 184.999 48.7 185.499Z" fill="#FFC001"/>
<path opacity="0.2" d="M46 187.199L46.6 199.099L44.7 198.099L44.2 188.299C44.2 187.799 43.8 187.199 43.3 186.999L28.8 179.599L25.8 178.099C25.3 177.899 25 178.099 25 178.599L25.5 188.399L23.6 187.399L23 175.499C23 175.399 23 175.399 23 175.299C23 174.899 23.4 174.799 23.8 174.999L45.1 185.899C45.6 186.099 46 186.699 46 187.199Z" fill="black"/>
<path d="M35.9998 177.999L45.0998 182.699C44.9998 181.299 44.4998 179.399 43.8998 178.699C42.9998 177.699 38.8998 173.699 37.5998 174.099C36.8998 174.299 36.2998 175.999 35.9998 177.999Z" fill="#F28F8F"/>
<path d="M35.9998 183.299C36.0998 183.599 36.1998 183.899 36.2998 184.099C37.4998 186.699 40.1998 188.599 40.1998 188.599C41.2998 188.399 42.2998 187.699 43.0998 186.899L35.9998 183.299Z" fill="#F28F8F"/>
<path d="M49.9999 66.5996C43.3999 69.4996 38.6999 74.4996 35.2999 85.2996C31.8999 95.8996 27.6999 108.8 26.0999 119.9C24.3999 131.1 22.9999 154.4 22.5999 161.6C22.3999 164.6 22.0999 167.4 22.3999 170.4C22.4999 172 23.0999 176.5 23.9999 180.2C24.3999 181.7 25.1999 183.1 26.6999 183.7C27.0999 183.8 27.4999 183.9 27.8999 184.1C28.5999 184.5 28.8999 185.3 29.3999 185.9C29.9999 186.5 30.9999 186.8 31.8999 186.8C32.2999 186.8 32.6999 186.8 33.0999 186.8C34.5999 187 35.6999 188.3 37.0999 188.8C38.2999 189.2 39.1999 189.3 40.3999 188.9C40.7999 188.7 41.5999 188.2 41.9999 187.9C42.2999 187.7 42.9999 187 43.1999 186.8C41.1999 187 39.6999 185.3 38.9999 183.8C38.1999 182.1 37.5999 179.9 37.5999 178C37.5999 177.5 37.5999 177 37.7999 176.6C37.8999 176.4 38.0999 176.2 38.2999 176.2C38.5999 176.2 38.6999 176.4 38.8999 176.7C39.7999 178.2 40.6999 179.7 42.0999 180.9C42.6999 181.4 43.2999 181.8 44.0999 181.7C44.8999 181.6 45.5999 181.1 45.4999 180.4C45.4999 180.1 45.3999 179.8 45.1999 179.6C44.1999 177.5 43.3999 175.3 42.7999 173C42.1999 170.9 41.6999 168.8 40.5999 166.9C39.4999 164.9 36.8999 162.2 37.1999 159.9C37.6999 156 44.8999 125.5 44.8999 125.5C44.8999 125.5 53.5999 98.7996 55.6999 91.6996C58.0999 82.8996 56.2999 71.6996 49.9999 66.5996Z" fill="#FFA8A7"/>
<path d="M52.2998 62.1992C41.7998 67.5992 39.1998 71.7992 36.2998 79.7992C33.6998 86.8992 27.9998 106.499 26.4998 113.399C23.8998 125.799 22.4998 149.699 22.4998 149.699C22.4998 149.699 23.6998 153.099 29.9998 154.599C36.1998 156.099 38.6998 154.199 38.6998 154.199L45.6998 123.999C45.6998 123.999 56.4998 98.8992 57.3998 95.3992C59.2998 88.1992 60.7998 66.9992 52.2998 62.1992Z" fill="#E6E6E6"/>
<path d="M132.4 42.2C132.7 42.9 132.8 43.6 133.1 44.2C133.4 44.8 133.8 45.4 134.3 45.9C135.3 47 136.6 47.7 138 47.8C141.1 48.1 144.5 45.5 143.8 42.2C143.7 41.9 144 41.6 144.3 41.6C146.3 41.4 147.4 39.4 147.4 37.5C147.4 35.4 146.2 33.6 144.1 33.2C143.7 33.1 143.2 33.1 142.8 33.1C142.4 33.1 142 33.2 141.6 33.2C140.8 33.1 140.7 32.1 140.4 31.6C139.5 30.1 137.7 29.2 135.9 29.5C134.8 29.7 133.8 30.3 133.2 31.1C132.5 32 132.3 33 132.1 34.1C132.1 34.2 131.8 34.6 131.7 34.3C131.1 32.4 132.4 30.2 134.1 29.2C136 28.1 138.5 28.3 140.2 29.8C140.6 30.1 140.9 30.5 141.2 30.9C141.3 31.1 141.5 31.4 141.6 31.6C141.7 31.7 141.8 32.3 141.9 32.3C142 32.3 142.4 32.2 142.5 32.2C142.8 32.2 143 32.2 143.3 32.2C143.9 32.2 144.4 32.3 145 32.4C147.3 33 148.5 35 148.6 37.3C148.7 39.6 147.3 41.8 145 42.4C145.4 46.1 141.8 48.9 138.3 48.8C136.6 48.8 134.9 48 133.7 46.8C132.6 45.7 131.5 43.9 131.8 42.4C131.7 42.1 132.2 41.9 132.4 42.2Z" fill="#455A64"/>
<path d="M119.9 37.3002C121.4 36.7002 123.2 36.6002 124.8 36.3002C125.5 36.2002 126.2 36.1002 126.9 36.0002C127.6 35.9002 128.4 35.7002 129.2 35.7002C129.6 35.7002 129.4 36.2002 129.1 36.3002C128.3 36.6002 127.5 36.7002 126.7 36.9002C125.9 37.0002 125.2 37.2002 124.4 37.3002C123.7 37.4002 123 37.5002 122.2 37.7002C121.4 37.8002 120.6 38.0002 119.8 37.9002C119.6 37.8002 119.7 37.4002 119.9 37.3002Z" fill="#455A64"/>
<path d="M121.2 41.8999C121.5 41.7999 121.8 41.7999 122.1 41.6999C122.4 41.5999 122.8 41.5999 123.1 41.5999C123.7 41.5999 124.3 41.4999 124.9 41.4999C125.5 41.4999 126.1 41.3999 126.7 41.3999C127.4 41.3999 128.1 41.2999 128.8 41.3999C129.1 41.4999 128.8 41.8999 128.6 41.9999C128 42.0999 127.4 42.0999 126.9 42.1999C126.3 42.1999 125.7 42.2999 125.1 42.2999C124.5 42.2999 123.9 42.3999 123.3 42.3999C123 42.3999 122.7 42.3999 122.5 42.3999C122.2 42.3999 121.6 42.4999 121.3 42.3999C120.8 42.3999 121 41.9999 121.2 41.8999Z" fill="#455A64"/>
</svg>
