<svg id="star" xmlns="http://www.w3.org/2000/svg" width="14.522" height="13.796" viewBox="0 0 14.522 13.796">
  <path id="Path_124" data-name="Path 124" d="M7.973.455,9.592,3.7a.809.809,0,0,0,.609.439l3.627.528a.812.812,0,0,1,.534.312.785.785,0,0,1,.152.592.8.8,0,0,1-.233.458l-2.63,2.546a.769.769,0,0,0-.233.7l.648,3.584a.809.809,0,0,1-.648.923A.848.848,0,0,1,10.9,13.7L7.662,12.014a.848.848,0,0,0-.764,0L3.66,13.7a.83.83,0,0,1-1.114-.325.822.822,0,0,1-.084-.509l.648-3.584a.768.768,0,0,0-.233-.7L.246,6.037a.786.786,0,0,1,0-1.133.789.789,0,0,1,.466-.229L4.34,4.146a.809.809,0,0,0,.609-.439L6.509.455A.8.8,0,0,1,7.248.009h.1A.809.809,0,0,1,7.973.455Z" transform="translate(-0.001 -0.002)" fill="#ffc001"/>
  <path id="Path_125" data-name="Path 125" d="M7.266,11.916a.881.881,0,0,0-.4.109L3.636,13.708a.843.843,0,0,1-1.092-.334.8.8,0,0,1-.084-.5l.648-3.577a.8.8,0,0,0-.233-.707L.238,6.041a.792.792,0,0,1,0-1.133A.828.828,0,0,1,.7,4.679l3.64-.535A.788.788,0,0,0,4.947,3.7L6.528.415A.807.807,0,0,1,7.272.007C7.266.223,7.266,11.77,7.266,11.916Z" transform="translate(0 0)" fill="#ffc001"/>
</svg>
